<svg width="36" height="36" viewBox="0 0 36 36" fill="#000" xmlns="http://www.w3.org/2000/svg">
<path d="M18.0008 0.758789C27.5236 0.758789 35.2422 8.47741 35.2422 18.0002C35.2422 27.5229 27.5236 35.2415 18.0008 35.2415C8.47805 35.2415 0.75943 27.5229 0.75943 18.0002C0.75943 8.47741 8.47805 0.758789 18.0008 0.758789ZM13.1732 23.9878C13.1733 24.1957 13.2284 24.3999 13.333 24.5797C13.4376 24.7594 13.5879 24.9083 13.7686 25.0111C13.9494 25.114 14.1541 25.1671 14.3621 25.1652C14.57 25.1633 14.7737 25.1063 14.9525 25.0002L25.0118 19.0126C25.187 18.9081 25.3321 18.76 25.4328 18.5826C25.5335 18.4053 25.5865 18.2048 25.5865 18.0009C25.5865 17.7969 25.5335 17.5964 25.4328 17.4191C25.3321 17.2417 25.187 17.0936 25.0118 16.9891L14.9525 11.0015C14.7739 10.895 14.5702 10.8377 14.3622 10.8355C14.1542 10.8333 13.9494 10.8863 13.7685 10.989C13.5877 11.0918 13.4373 11.2407 13.3327 11.4205C13.2282 11.6003 13.1731 11.8046 13.1732 12.0126V23.9878Z" fill="#040707" fill-opacity="0.8"/>
</svg>
